<svg width="679" height="557" viewBox="0 0 679 557" fill="none" xmlns="http://www.w3.org/2000/svg">
<path opacity="0.2" d="M212.859 509.106C212.859 509.106 173.791 522.693 153.597 527.004C128.146 532.224 102.333 535.953 76.5188 533.343C58.3401 531.479 40.1613 529.241 23.4369 518.801C6.71249 508.36 -1.28619 488.97 0.168142 467.343C2.25308 437.763 13.3059 411.247 24.4374 384.543C24.9523 383.307 25.4676 382.071 25.982 380.835C40.8627 344.887 59.3855 310.642 81.2453 278.665C100.97 249.369 122.591 221.464 145.962 195.14C180.626 155.032 218.978 118.445 260.487 85.8851C295.355 59.2792 333.974 38.2809 375.013 23.614C394.686 16.7668 414.714 11.0405 435.003 6.46138C442.236 4.73062 449.628 3.98356 456.968 3.24173L456.974 3.24122C460.701 2.86445 464.416 2.48904 468.089 1.98675C481.205 0.00297272 494.495 -0.497211 507.718 0.495247C523.871 1.57476 539.916 3.9435 555.71 7.57998C576.357 13.477 596.25 21.8632 614.973 32.5631C637.878 45.6139 649.876 64.6309 649.149 91.4783C648.422 118.326 641.514 134.36 624.426 149.648C621.517 152.631 619.336 153.377 616.063 149.648C598.975 130.631 576.797 123.546 552.438 120.19C533.333 118.012 514.038 118.262 494.993 120.936C475.428 123.062 456.158 127.44 437.548 133.987C405.32 144.767 374.445 159.411 345.564 177.614C325.129 190.034 305.459 203.732 286.665 218.631C257.664 240.719 230.651 265.428 205.951 292.462C183.41 317.445 162.322 343.546 149.961 375.987C142.966 392.286 141.308 410.471 145.234 427.818C146.489 431.002 148.518 433.805 151.127 435.959C153.736 438.113 156.839 439.546 160.141 440.123C187.773 443.852 213.586 436.394 239.037 426.699C240.211 426.197 241.36 425.614 242.51 425.03C245.632 423.444 268.759 413.502 268.759 413.502C271.373 412.479 273.984 411.459 276.485 410.292C296.845 400.597 317.206 390.53 337.202 380.089C367.742 363.682 397.919 346.53 427.732 329.004C441.193 321.176 454.548 313.185 467.898 305.198C489.525 292.258 511.138 279.325 533.169 267.106C560.184 251.881 588.114 238.431 616.791 226.835C630.243 221.614 643.695 217.885 658.238 220.123C672.426 222.305 683.846 227.327 696.21 232.764L697.141 233.174C704.962 236.611 708.937 238.922 712.613 241.058C714.917 242.398 717.104 243.669 720.046 245.106C720.961 245.43 721.798 245.948 722.505 246.626C723.212 247.304 723.772 248.127 724.149 249.041C724.526 249.955 724.712 250.94 724.694 251.932C724.676 252.924 724.455 253.902 724.045 254.801L707.685 308.123L707.682 308.134L707.679 308.142C703.318 323.797 698.957 339.451 694.959 355.479L684.052 394.631L674.236 436.767C672.964 442.359 671.6 448.044 670.237 453.73C668.873 459.417 667.51 465.105 666.237 470.699C665.623 476.72 664.651 482.698 663.329 488.598C662.238 492.699 665.874 491.208 667.328 490.462L717.501 468.462C754.222 452.428 790.943 436.394 828.028 421.479C849.637 412.788 868.163 404.981 886.333 397.325L886.349 397.318C899.355 391.838 912.181 386.434 925.829 380.835L973.821 361.445C977.502 358.676 981.679 357.267 985.907 355.84C987.943 355.153 989.991 354.463 992 353.614C986.892 357.921 981.196 361.435 975.097 364.045C975.078 364.06 975.059 364.075 975.04 364.089C975.019 364.104 974.999 364.118 974.979 364.132C974.74 364.293 974.468 364.395 974.185 364.428L837.481 442.733L732.771 502.394C703.685 518.801 674.236 534.835 643.695 548.259C634.78 551.947 625.522 554.695 616.064 556.462C600.794 559.445 593.522 547.14 596.067 533.343C597.367 526.298 598.098 521.587 598.744 517.421C599.363 513.429 599.904 509.939 600.794 505.377C601.623 501.124 602.68 495.396 603.825 489.184L603.837 489.12L603.838 489.113C605.2 481.73 606.686 473.671 608.065 466.598C609.045 461.573 609.971 456.437 610.906 451.255L610.908 451.241C612.4 442.968 613.912 434.577 615.7 426.326C618.609 412.903 620.79 401.343 622.972 389.038C623.618 385.391 624.361 381.48 625.133 377.416L625.136 377.398C626.968 367.755 628.965 357.238 630.243 347.275C630.75 343.325 631.257 340.071 631.701 337.221C632.849 329.848 633.575 325.183 632.788 318.191C630.97 296.564 621.517 295.072 604.43 300.292C586.81 305.455 571.342 315.031 555.874 324.607C551.234 327.479 546.593 330.352 541.895 333.106C518.483 346.651 495.291 360.421 472.138 374.169L472.126 374.176L472.099 374.193L472.093 374.196L472.038 374.229C453.157 385.44 434.3 396.636 415.371 407.682C373.196 432.292 341.202 449.072 303.39 468.835C287.15 477.535 212.859 509.106 212.859 509.106Z" fill="#F97A06"/>
</svg>
